<svg id="Component_1_1" data-name="Component 1 – 1" xmlns="http://www.w3.org/2000/svg" width="288" height="288" viewBox="0 0 288 288">
  <g id="Rectangle_1" data-name="Rectangle 1" fill="#d69a81" stroke="#707070" stroke-width="1">
    <rect width="288" height="288" rx="29" stroke="none"/>
    <rect x="0.5" y="0.5" width="287" height="287" rx="28.5" fill="none"/>
  </g>
  <g id="Rectangle_8" data-name="Rectangle 8" transform="translate(209 23)" fill="#414141" stroke="#707070" stroke-width="1">
    <rect width="30" height="241" rx="8" stroke="none"/>
    <rect x="0.5" y="0.5" width="29" height="240" rx="7.5" fill="none"/>
  </g>
  <g id="Rectangle_9" data-name="Rectangle 9" transform="translate(169 97)" fill="#414141" stroke="#707070" stroke-width="1">
    <rect width="30" height="167" rx="8" stroke="none"/>
    <rect x="0.5" y="0.5" width="29" height="166" rx="7.5" fill="none"/>
  </g>
  <g id="Rectangle_10" data-name="Rectangle 10" transform="translate(129 160)" fill="#414141" stroke="#707070" stroke-width="1">
    <rect width="30" height="104" rx="8" stroke="none"/>
    <rect x="0.5" y="0.5" width="29" height="103" rx="7.5" fill="none"/>
  </g>
  <g id="Rectangle_11" data-name="Rectangle 11" transform="translate(89 97)" fill="#414141" stroke="#707070" stroke-width="1">
    <rect width="30" height="167" rx="8" stroke="none"/>
    <rect x="0.5" y="0.5" width="29" height="166" rx="7.5" fill="none"/>
  </g>
  <g id="Rectangle_12" data-name="Rectangle 12" transform="translate(49 23)" fill="#414141" stroke="#707070" stroke-width="1">
    <rect width="30" height="241" rx="8" stroke="none"/>
    <rect x="0.5" y="0.5" width="29" height="240" rx="7.5" fill="none"/>
  </g>
</svg>
